---------------------------------------------------------------------
                    Foo Fighters - Greatest Hits
---------------------------------------------------------------------

Artist...............: Foo Fighters
Album................: Greatest Hits
Genre................: Alternative Rock
Source...............: CD
Year.................: 2009
Ripper...............: My Encoder & Samsung
Codec................: Free Lossless Audio Codec (FLAC)
Version..............: reference libFLAC 1.2.1 20070917
Quality..............: Lossless, (avg. compression: 70 %)
Channels.............: Stereo / 44100 HZ / 16 Bit
Tags.................: Compilation
Information..........: matesioCDrip for CzT

Ripped by............: by Matesio on 2.2.2013
Posted by............: by Matesio on 2.2.2013
News Server..........: 
News Group(s)........: 

Included.............: NFO
Covers...............: Front Back CD 

---------------------------------------------------------------------
                       Tracklisting
---------------------------------------------------------------------

   1. Foo Fighters - All My Life                              [04:24]
   2. Foo Fighters - Best Of You                              [04:16]
   3. Foo Fighters - Everlong                                 [04:10]
   4. Foo Fighters - The Pretender                            [04:27]
   5. Foo Fighters - My Hero                                  [04:18]
   6. Foo Fighters - Learn To Fly                             [03:56]
   7. Foo Fighters - Times Like These                         [04:27]
   8. Foo Fighters - Monkey Wrench                            [03:52]
   9. Foo Fighters - Big Me                                   [02:14]
  10. Foo Fighters - Breakout                                 [03:21]
  11. Foo Fighters - Long Road To Ruin                        [03:48]
  12. Foo Fighters - This Is A Call                           [03:54]
  13. Foo Fighters - Skin And Bones                           [04:03]
  14. Foo Fighters - Wheels                                   [04:38]
  15. Foo Fighters - Word Forward                             [03:48]
  16. Foo Fighters - Everlong [Acoustic Version]              [04:10]

Playing Time.........: 01:03:54
Total Size...........: 448.06 MB

NFO generated on.....: 2.2.2013 11:35:23


:: Generated by Music NFO Builder v1.21a - www.nfobuilder.com ::

----------------------------------------------------------------------------
----------------------------------------------------------------------------

DVD INFO:

1.	"I'll Stick Around"  	 
2.	"Big Me"  	 
3.	"Monkey Wrench"  	 
4.	"Everlong"  	 
5.	"My Hero"  	 
6.	"Walking After You"  	 
7.	"Learn to Fly"  	 
8.	"Next Year"  	 
9.	"All My Life"  	 
10.	"Times Like These" (Acoustic version)	 
11.	"Low"  	 
12.	"Best of You"  	 
13.	"DOA"  	 
14.	"Resolve" (Non-glow version)	 
15.	"The Pretender"  	 
16.	"Long Road to Ruin"  	 
17.	"Wheels"  	 
18.	"Everlong" (Live - "Everywhere but Home" DVD)	 
19.	"Breakout" (Live from Hyde Park)	 
20.	"Skin and Bones" (Live from Hollywood - "Skin and Bones" DVD)	 
21.	"All My Life" (Live - "Live from Wembley Stadium" DVD)

   
General
      Complete name : FOO_FIGHTERSVIDEO_TSVTS_01_3.VOB
      Format : MPEG-PS
      File size : 1 024 MiB
      Duration : 2mn 6s
      Overall bit rate mode : Variable
      Overall bit rate : 68.0 Mbps
   Video #224
      ID : 224 (0xE0)
      Format : MPEG Video
      Format version : Version 2
      Format profile : Main@Main
      Format settings, BVOP : Yes
      Format settings, Matrix : Custom
      Duration : 2mn 6s
      Bit rate mode : Variable
      Bit rate : 66.5 Mbps
      Maximum bit rate : 9 800 Kbps
      Width : 720 pixels
      Height : 480 pixels
      Display aspect ratio : 4:3
      Frame rate : 29.970 fps
      Standard : NTSC
      Color space : YUV
      Chroma subsampling : 4:2:0
      Bit depth : 8 bits
      Scan type : Interlaced
      Scan order : Top Field First
      Compression mode : Lossy
      Bits/(Pixel*Frame) : 6.417
      Stream size : 999 MiB (98%)
   Audio #189-128
      ID : 189 (0xBD)-128 (0x80)
      Format : AC-3
      Format/Info : Audio Coding 3
      Mode extension : CM (complete main)
      Muxing mode : DVD-Video
      Duration : 2mn 6s
      Bit rate mode : Constant
      Bit rate : 224 Kbps
      Channel(s) : 2 channels
      Channel positions : Front: L R
      Sampling rate : 48.0 KHz
      Bit depth : 16 bits
      Compression mode : Lossy
      Delay relative to video : -396ms
      Stream size : 3.37 MiB (0%)

Take it!,hear it!,love it! Matesio